<svg xmlns="http://www.w3.org/2000/svg" width="345" height="345" viewBox="0 0 345 345"><defs><clipPath id="a">

<path d="M0 25h320v320H0z"/></clipPath></defs>

<path fill="none" stroke="#000" d="M7.05 179.4c-.35 2.1-4.2 5.25-5.25 5.6 1.05.35 4.9 3.5 5.25 5.6" stroke-width="2" stroke-linejoin="round" stroke-linecap="round"/>

<path fill="none" stroke="#000" d="M160 185H1.05" stroke-width="2"/>

<path fill="none" stroke="#000" d="M314.45 190.6c.35-2.1 4.2-5.25 5.25-5.6-1.05-.35-4.9-3.5-5.25-5.6" stroke-width="2" stroke-linejoin="round" stroke-linecap="round"/>

<path fill="none" stroke="#000" d="M160 185h158.95" stroke-width="2"/>

<path fill="none" stroke="#000" d="M155.15 338.7c2.1.35 5.25 4.2 5.6 5.25.35-1.05 3.5-4.9 5.6-5.25" stroke-width="2" stroke-linejoin="round" stroke-linecap="round"/>

<path fill="none" stroke="#000" d="M160 185v158.95" stroke-width="2"/>

<path fill="none" stroke="#000" d="M166.35 31.3c-2.1-.35-5.25-4.2-5.6-5.25-.35 1.05-3.5 4.9-5.6 5.25" stroke-width="2" stroke-linejoin="round" stroke-linecap="round"/>

<path fill="none" stroke="#000" d="M160 185V26.05" stroke-width="2"/>

<path fill="none" stroke="#000" d="M274.286 190v-10M45.714 190v-10M155 70.714h10M155 299.286h10"/>

<path fill="none" stroke="#000" d="M274.286 322.143V47.857M45.714 322.143V47.857M22.857 70.714h274.286M22.857 299.286h274.286" clip-path="url(#a)" stroke-opacity=".3"/>

<path fill="none" stroke="#11accd" d="M274.286 185l-.001-.5-.004-.5-.005-.5-.008-.5-.01-.5-.012-.5-.014-.499-.016-.5-.019-.5-.021-.499-.023-.5-.025-.499-.027-.499-.03-.5-.031-.499-.034-.498-.036-.499-.038-.499-.041-.498-.043-.498-.044-.498-.047-.498-.049-.498-.052-.497-.053-.497-.056-.497-.058-.497-.06-.496-.062-.496-.064-.496-.067-.496-.068-.495-.071-.495-.073-.494-.076-.495-.077-.494-.079-.493-.082-.494-.084-.493-.086-.492-.088-.492-.09-.492-.093-.491-.094-.491-.097-.491-.099-.49-.101-.49-.103-.489-.105-.489-.108-.488-.109-.488-.112-.487-.114-.487-.116-.487-.118-.485-.12-.486-.123-.485-.124-.484-.127-.483-.128-.484-.131-.482-.133-.482-.135-.482-.137-.481-.139-.48-.142-.479-.143-.479-.146-.479-.147-.477-.15-.477-.152-.477-.154-.476-.156-.475-.158-.474-.16-.474-.162-.473-.164-.472-.166-.471-.169-.471-.17-.47-.173-.47-.174-.468-.177-.468-.178-.467-.181-.466-.183-.466-.184-.464-.187-.464-.189-.463-.191-.462-.193-.462-.194-.46-.197-.46-.199-.458-.201-.458-.203-.457-.205-.456-.207-.455-.209-.455-.21-.453-.213-.453-.215-.451-.217-.451-.219-.449-.22-.449-.223-.448-.225-.446-.226-.446-.229-.445-.23-.443-.233-.443-.234-.442-.236-.44-.238-.44-.241-.439-.242-.437-.244-.437-.245-.435-.248-.434-.25-.433-.251-.433-.254-.431-.255-.43-.257-.428-.259-.428-.261-.426-.263-.426-.265-.424-.266-.423-.269-.422-.27-.421-.272-.419-.274-.418-.276-.418-.277-.415-.279-.415-.282-.414-.283-.412-.284-.411-.287-.41-.288-.408-.29-.407-.292-.406-.294-.405-.295-.403-.298-.402-.299-.401-.3-.399-.303-.399-.304-.396-.306-.396-.308-.394-.309-.393-.311-.391-.313-.39-.314-.389-.317-.387-.318-.386-.319-.385-.321-.383-.323-.382-.325-.38-.326-.379-.328-.377-.33-.376-.331-.375-.333-.373-.334-.372-.336-.37-.338-.368-.339-.368-.341-.365-.343-.365-.344-.362-.346-.362-.347-.359-.349-.359-.35-.356-.352-.355-.354-.354-.355-.352-.356-.35-.359-.349-.359-.348-.361-.345-.363-.345-.364-.342-.366-.341-.367-.34-.369-.337-.37-.337-.372-.334-.373-.333-.374-.331-.376-.33-.377-.328-.379-.326-.38-.325-.382-.323-.383-.321-.385-.32-.386-.318-.387-.316-.388-.315-.39-.313-.392-.31-.393-.31-.394-.308-.395-.306-.397-.304-.398-.303-.399-.3-.401-.3-.402-.297-.403-.296-.405-.293-.406-.292-.407-.29-.408-.289-.41-.287-.411-.284-.412-.283-.414-.282-.414-.279-.416-.278-.417-.275-.418-.274-.42-.272-.421-.27-.421-.27-.423-.266-.425-.264-.425-.263-.426-.261-.428-.26-.429-.257-.43-.255-.431-.254-.432-.251-.433-.25-.434-.248-.435-.246-.437-.244-.437-.242-.439-.24-.439-.239-.441-.236-.442-.234-.442-.233-.444-.23-.445-.229-.445-.227-.447-.224-.448-.223-.448-.22-.45-.22-.45-.216-.452-.215-.452-.213-.453-.211-.455-.21-.455-.206-.456-.205-.457-.203-.458-.201-.458-.199-.46-.197-.46-.195-.462-.193-.462-.19-.463-.19-.464-.186-.464-.185-.466-.183-.466-.18-.467-.18-.467-.176-.469-.175-.469-.172-.47-.17-.471-.17-.472-.166-.472-.164-.473-.162-.473-.16-.475-.158-.475-.156-.475-.154-.477-.152-.477-.15-.478-.148-.478-.145-.479-.144-.479-.141-.481-.14-.48-.137-.482-.135-.482-.133-.482-.13-.484-.13-.483-.126-.485-.125-.484-.122-.486-.12-.485-.119-.487-.116-.487-.114-.487-.111-.488-.11-.488-.107-.489-.106-.489-.103-.49-.101-.49-.1-.49-.096-.491-.095-.492-.092-.491-.09-.493-.089-.492-.086-.493-.084-.493-.082-.494-.08-.494-.076-.494-.076-.495-.073-.495-.07-.495-.07-.496-.066-.495-.065-.497-.062-.496-.06-.497-.058-.496-.056-.498-.053-.497-.052-.497-.049-.498-.047-.498-.045-.498-.043-.499-.04-.498-.038-.499-.036-.499-.034-.499-.032-.499-.03-.499-.027-.5-.026-.499-.022-.5-.021-.499-.019-.5-.016-.5-.015-.5-.012-.5-.01-.499-.008-.5-.005-.5-.003-.5-.002-.5.001-.5.004-.5.005-.5.007-.5.01-.5.012-.5.014-.5.017-.499.018-.5.02-.499.024-.5.025-.499.027-.499.03-.499.031-.499.034-.499.036-.498.038-.499.04-.498.043-.498.044-.498.047-.497.05-.497.05-.498.054-.497.056-.496.057-.497.06-.496.062-.496.065-.495.066-.495.069-.495.07-.495.073-.494.076-.494.077-.494.08-.493.08-.493.085-.493.085-.492.088-.492.09-.491.093-.491.094-.491.097-.49.099-.49.1-.489.104-.489.105-.488.108-.488.109-.487.112-.487.113-.487.116-.485.118-.486.12-.485.123-.484.124-.484.127-.483.128-.482.13-.482.134-.482.135-.481.137-.48.139-.48.141-.479.143-.478.146-.478.147-.477.15-.476.152-.476.154-.475.155-.474.158-.474.16-.473.162-.472.165-.472.166-.471.168-.47.17-.469.173-.469.174-.468.177-.467.178-.466.18-.465.183-.465.185-.464.187-.463.189-.462.19-.461.193-.461.195-.46.197-.458.198-.458.201-.457.203-.456.205-.456.207-.454.208-.453.211-.453.213-.451.215-.451.216-.45.219-.448.22-.448.223-.447.225-.446.226-.444.229-.444.23-.443.232-.442.235-.44.236-.44.238-.438.24-.438.242-.437.244-.435.246-.434.247-.434.25-.432.251-.431.254-.43.255-.429.257-.427.26-.427.26-.425.263-.424.264-.424.267-.421.268-.421.27-.42.272-.418.274-.417.276-.416.277-.415.28-.413.28-.413.284-.41.284-.41.287-.41.288-.406.29-.406.292-.405.293-.403.296-.403.297-.4.299-.4.3-.398.303-.397.304-.395.306-.395.308-.392.309-.392.31-.39.314-.389.314-.387.316-.386.318-.385.32-.383.32-.382.324-.38.324-.379.326-.377.328-.376.33-.375.331-.373.333-.372.334-.37.336-.369.338-.367.339-.366.341-.364.343-.363.344-.362.345-.36.347-.358.349-.356.351-.355.351-.354.354-.352.355-.35.357-.35.358-.347.359-.346.361-.344.363-.343.364-.34.366-.34.367-.338.368-.336.37-.335.372-.333.373-.331.374-.33.376-.328.378-.326.378-.325.381-.323.381-.322.383-.32.385-.317.385-.317.388-.314.388-.313.39-.312.391-.31.393-.307.394-.306.396-.304.396-.303.398-.3.4-.3.4-.297.402-.296.404-.294.404-.292.406-.29.407-.289.408-.286.41-.285.411-.283.412-.282.413-.28.415-.277.416-.276.417-.274.418-.272.419-.27.421-.269.422-.266.423-.265.424-.263.425-.261.427-.26.427-.257.429-.255.43-.254.431-.252.432-.25.433-.247.434-.246.435-.244.437-.242.437-.24.439-.24.439-.236.441-.234.441-.233.443-.23.443-.229.445-.227.446-.224.446-.223.448-.221.449-.22.449-.216.451-.215.451-.213.452-.211.454-.209.454-.207.455-.205.456-.203.457-.201.458-.2.458-.196.46-.195.46-.193.462-.191.462-.19.463-.186.463-.185.465-.183.465-.18.466-.18.467-.176.468-.175.469-.172.469-.171.47-.169.471-.166.471-.164.472-.163.473-.16.474-.158.474-.156.475-.154.476-.152.476-.15.477-.148.478-.146.478-.143.479-.142.48-.14.48-.136.481-.136.481-.133.482-.13.483-.13.483-.126.483-.125.485-.122.484-.12.486-.119.485-.116.487-.114.487-.112.487-.11.488-.107.488-.106.489-.103.489-.101.49-.1.49-.096.49-.095.491-.093.491-.09.492-.088.492-.087.493-.084.493-.081.493-.08.494-.078.494-.075.494-.073.495-.071.494-.069.496-.067.495-.064.496-.063.496-.06.496-.058.497-.056.497-.053.497-.052.497-.049.498-.047.498-.045.498-.043.498-.04.498-.039.499-.036.498-.034.499-.032.499-.03.499-.027.5-.026.499-.023.499-.02.5-.02.5-.016.499-.014.5-.013.5-.01.5-.007.5-.006.5-.003.5-.002.5.001.5.003.5.006.5.007.5.01.5.012.5.014.499.016.5.018.5.02.499.024.5.025.499.027.499.03.5.03.499.034.498.036.499.038.499.04.498.043.498.045.498.047.498.048.498.052.497.053.497.055.497.058.497.06.496.062.496.064.496.066.496.069.495.07.495.074.495.075.494.077.494.08.494.08.493.084.493.086.493.088.492.09.492.092.491.095.491.096.491.099.49.1.489.104.49.105.489.107.488.11.488.111.487.114.487.116.486.118.486.12.486.122.485.124.484.127.484.128.483.13.482.133.483.135.481.137.481.14.48.14.48.144.479.145.478.148.478.15.477.15.477.154.475.156.475.158.475.16.474.162.473.164.472.166.472.168.47.17.471.173.469.174.469.177.467.178.467.18.467.183.465.185.465.187.464.188.463.19.462.193.461.195.461.197.46.199.458.2.458.203.457.205.457.206.455.21.454.21.454.212.452.215.452.217.45.218.45.221.449.222.448.225.446.226.446.229.445.23.444.232.443.235.441.236.441.238.44.24.438.242.438.243.436.246.436.248.434.25.434.25.432.254.431.255.43.257.429.26.427.26.427.263.426.264.424.266.423.269.422.27.421.272.419.273.419.276.417.277.416.28.415.28.413.283.413.285.411.286.41.289.408.29.407.291.406.294.405.295.404.297.402.3.401.3.399.302.398.304.397.306.396.308.394.309.393.31.392.313.39.315.389.316.387.318.386.32.385.32.383.323.382.325.38.326.379.328.378.329.376.331.374.333.374.334.371.336.371.338.369.339.367.34.366.343.364.344.363.346.361.347.36.349.359.35.356.352.356.353.353.355.352.356.351.359.349.36.347.36.346.363.345.364.342.365.342.367.339.369.338.37.336.371.335.373.333.375.331.376.33.377.328.379.327.38.325.381.323.383.321.385.32.385.318.387.316.389.315.39.313.391.311.393.31.394.308.395.306.397.305.398.302.399.301.4.299.403.298.403.295.404.294.406.292.407.291.408.288.41.287.41.285.413.283.413.282.415.279.415.278.418.276.418.274.419.272.42.271.422.268.423.267.424.265.426.263.426.261.427.259.429.258.43.255.431.254.432.252.433.25.434.248.435.246.437.244.437.242.438.24.44.239.44.236.442.235.443.233.443.23.445.229.445.227.447.225.447.223.449.221.449.219.451.217.451.215.453.213.453.211.454.209.455.207.456.205.457.203.458.201.458.199.46.197.46.196.462.193.462.191.463.189.463.187.465.185.465.183.466.181.467.178.468.177.468.175.47.173.469.17.471.169.472.167.472.164.473.162.473.161.475.158.475.156.475.154.477.152.477.15.477.148.478.146.479.144.48.141.48.14.481.137.481.135.482.133.483.132.483.128.483.127.485.125.484.123.486.12.485.118.487.117.486.114.488.112.488.109.488.108.489.106.489.103.489.101.49.1.491.096.491.095.491.093.492.091.492.088.493.086.492.084.494.082.493.08.494.078.495.075.494.073.495.071.495.069.496.067.496.065.496.062.496.06.497.058.497.056.497.054.497.052.498.049.497.047.498.045.498.043.499.041.498.038.499.037.499.034.499.032.499.03.499.027.499.026.5.023.499.021.5.019.5.016.5.015.499.012.5.01.5.008.5.006.5.003.5.002.5-.001.5-.003.5-.005.5-.008.5-.009.5-.012.5-.014.499-.016.5-.019.5-.02.499-.023.5-.025.499-.027.499-.029.499-.031.499-.034.499-.036.498-.038.499-.04.498-.042.498-.045.498-.047.497-.049.498-.051.497-.053.497-.055.496-.058.497-.06.496-.061.496-.065.495-.066.496-.068.495-.071.494-.073.495-.075.494-.077.493-.079.494-.081.493-.084.492-.086.492-.087.492-.091.492-.092.491-.094.49-.097.491-.098.489-.101.49-.103.488-.105.489-.107.488-.109.487-.112.487-.113.486-.116.486-.118.486-.12.485-.122.484-.124.484-.127.483-.128.483-.131.482-.132.481-.135.481-.137.48-.139.48-.141.479-.143.479-.145.477-.148.477-.149.477-.152.476-.153.475-.156.474-.158.474-.16.473-.162.472-.164.472-.166.471-.168.47-.17.47-.172.468-.175.468-.176.467-.178.466-.181.466-.182.465-.185.464-.186.463-.189.462-.19.461-.193.461-.194.46-.197.458-.199.458-.2.458-.203.456-.205.455-.206.454-.209.454-.211.452-.212.452-.215.451-.216.449-.219.449-.22.448-.223.447-.224.446-.226.445-.229.443-.23.443-.232.442-.234.441-.236.439-.238.439-.24.438-.242.436-.244.436-.245.434-.248.434-.249.432-.252.431-.253.43-.255.429-.257.428-.259.426-.261.426-.262.424-.265.423-.266.422-.268.421-.27.42-.272.418-.274.418-.275.416-.277.414-.28.414-.28.412-.283.412-.285.409-.286.409-.288.407-.29.407-.292.404-.293.404-.296.402-.297.401-.298.4-.301.398-.302.397-.304.396-.306.394-.307.393-.31.391-.311.391-.312.388-.314.388-.316.386-.318.385-.32.383-.321.382-.322.38-.325.379-.326.378-.328.376-.329.375-.331.373-.333.372-.334.37-.336.369-.337.368-.34.365-.34.365-.343.363-.344.361-.345.36-.347.359-.349.356-.35.356-.352.353-.353.353-.355.35-.357.349-.357.348-.36.346-.361.344-.362.343-.364.341-.366.34-.367.338-.368.336-.37.335-.372.333-.373.331-.374.33-.376.328-.377.327-.379.325-.38.323-.381.322-.383.319-.384.319-.386.316-.387.315-.389.313-.39.311-.391.31-.392.308-.394.306-.396.305-.396.302-.398.301-.399.3-.401.297-.402.296-.403.294-.404.292-.406.29-.407.289-.408.287-.41.285-.411.283-.412.282-.413.279-.415.278-.415.276-.417.274-.418.273-.42.27-.42.269-.422.267-.423.264-.424.264-.425.261-.426.259-.428.258-.428.255-.43.254-.431.252-.432.25-.433.248-.434.246-.435.244-.436.243-.438.24-.438.239-.44.236-.44.235-.442.233-.442.23-.444.229-.444.227-.446.225-.446.223-.448.221-.448.219-.45.217-.45.215-.452.213-.452.212-.453.209-.454.207-.455.205-.456.203-.457.201-.458.2-.458.197-.46.195-.46.193-.461.191-.463.189-.462.187-.464.186-.465.183-.465.181-.466.178-.467.177-.467.175-.469.173-.469.171-.47.168-.471.167-.471.165-.472.162-.473.161-.474.158-.474.156-.475.154-.476.152-.476.15-.477.148-.477.146-.479.144-.479.142-.479.139-.48.138-.481.135-.481.133-.482.131-.483.129-.483.127-.483.125-.485.123-.484.12-.486.119-.485.116-.487.114-.486.112-.488.11-.487.108-.489.106-.488.103-.49.101-.489.1-.49.097-.491.095-.491.092-.491.091-.492.089-.492.086-.492.084-.493.082-.493.08-.494.078-.494.075-.494.073-.495.072-.495.069-.495.066-.495.065-.496.063-.496.06-.497.058-.496.056-.497.054-.497.052-.497.049-.498.047-.498.046-.498.043-.498.04-.498.039-.499.036-.498.035-.499.032-.499.029-.499.028-.5.026-.499.023-.499.021-.5.019-.5.017-.499.014-.5.013-.5.01-.5.008-.5.006-.5.003-.5.002-.5" stroke-width="3" clip-path="url(#a)"/>

<path stroke="#000" d="M174.464 185a14.464 14.464 0 0 0-11.565-14.17" clip-path="url(#a)" stroke-dasharray="0" fill="none"/>

<path fill="none" stroke="#ca337c" d="M160 185l22.906-111.967" stroke-width="2" clip-path="url(#a)"/>

<ellipse cx="182.906" cy="73.033" rx="4" ry="4" stroke="#000" stroke-width="2" clip-path="url(#a)" stroke-dasharray="0"/></svg>
